<?xml version="1.0" encoding="utf-8"?>
<!-- Generator: Adobe Illustrator 22.1.0, SVG Export Plug-In . SVG Version: 6.00 Build 0)  -->
<svg version="1.1" id="Layer_1" xmlns="http://www.w3.org/2000/svg" xmlns:xlink="http://www.w3.org/1999/xlink" x="0px" y="0px"
	 viewBox="0 0 640 320" style="enable-background:new 0 0 640 320;" xml:space="preserve">
<style type="text/css">
	.st0{fill:#FCC062;}
	.st1{fill:#FDD089;}
	.st2{fill:#FBB03B;}
	.st3{fill:#FF6666;}
	.st4{fill:#FF8080;}
	.st5{fill:#FFA9A9;}
	.st6{fill:#333333;}
	.st7{font-family:'Cabin-Bold';}
	.st8{font-size:22px;}
</style>
<g>
	<rect x="365.3" y="152.6" class="st0" width="0.2" height="8.8"/>
	<polygon class="st0" points="368.7,74.4 365.4,61.1 365.5,77.6 	"/>
	<path class="st0" d="M365.3,82v60h0.2V82C365.4,82,365.3,82,365.3,82z"/>
	<rect x="361.8" y="152.6" class="st1" width="3.4" height="8.8"/>
	<path class="st1" d="M364.1,81.5l-2.3-2.3V142h3.4V82C364.8,82,364.4,81.8,364.1,81.5z"/>
	<path class="st2" d="M365.5,82v60h3.4V79.2l-2.3,2.3C366.3,81.8,365.9,82,365.5,82z"/>
	<rect x="365.5" y="152.6" class="st2" width="3.4" height="8.8"/>
	<rect x="365.4" y="145.6" class="st3" width="3.5" height="3.5"/>
	<rect x="361.8" y="145.6" class="st4" width="3.6" height="3.5"/>
	<path class="st1" d="M289.4,62.6v-7.1h-10.6V59h3.5c1,0,1.8,0.8,1.8,1.8s-0.8,1.8-1.8,1.8h-3.5v7.1h3.5c1,0,1.8,0.8,1.8,1.8
		s-0.8,1.8-1.8,1.8h-3.5v7.1h3.5c1,0,1.8,0.8,1.8,1.8s-0.8,1.8-1.8,1.8h-3.5v7.1h3.5c1,0,1.8,0.8,1.8,1.8s-0.8,1.8-1.8,1.8h-3.5v7.1
		h3.5c1,0,1.8,0.8,1.8,1.8s-0.8,1.8-1.8,1.8h-3.5v7.1h3.5c1,0,1.8,0.8,1.8,1.8s-0.8,1.8-1.8,1.8h-3.5v7.1h3.5c1,0,1.8,0.8,1.8,1.8
		s-0.8,1.8-1.8,1.8h-3.5v7.1h3.5c1,0,1.8,0.8,1.8,1.8s-0.8,1.8-1.8,1.8h-3.5v7.1h3.5c1,0,1.8,0.8,1.8,1.8s-0.8,1.8-1.8,1.8h-3.5v7.1
		h3.5c1,0,1.8,0.8,1.8,1.8s-0.8,1.8-1.8,1.8h-3.5v3.5h10.6V69.7c0-0.9,0.7-1.7,1.6-1.8v-3.5C290.1,64.3,289.4,63.5,289.4,62.6z"/>
	<path class="st3" d="M339.2,71.5c0.8,0.2,1.4,0.9,1.4,1.7s-0.6,1.6-1.4,1.7V82c0.8,0.2,1.4,0.9,1.4,1.7s-0.6,1.6-1.4,1.7v76h8.5
		V55.5h-8.5V71.5z"/>
	<path class="st4" d="M338.9,71.4c0.1,0,0.2,0,0.4,0V55.5h-18.8v15.9H338.9z"/>
	<path class="st4" d="M338.9,85.5h-8.8c-1,0-1.8-0.8-1.8-1.8s0.8-1.8,1.8-1.8h8.8c0.1,0,0.2,0,0.4,0v-7.1c-0.1,0-0.2,0-0.4,0h-18.4
		V82h2.5c1,0,1.8,0.8,1.8,1.8s-0.8,1.8-1.8,1.8h-2.5v75.9h18.7v-76C339.1,85.5,339,85.5,338.9,85.5z"/>
	<path class="st5" d="M301.8,85.5c-1,0-1.8-0.8-1.8-1.8s0.8-1.8,1.8-1.8h18.6V75h-18.6c-1,0-1.8-0.8-1.8-1.8s0.8-1.8,1.8-1.8h18.6
		V55.5h-27.5v7.1c0,1-0.8,1.8-1.8,1.8H291v3.5h0.1c1,0,1.8,0.8,1.8,1.8v91.8h27.5v-76H301.8z M301.8,151.6V150v-27.9v-8.9V100h3.5
		v13.2v8.9V150v1.5h-3.5V151.6z"/>
	<polygon class="st1" points="365.5,77.6 365.4,61.1 365.3,61 362,74.4 365.3,77.8 	"/>
	<path class="st6" d="M349.4,52H277c-1,0-1.8,0.8-1.8,1.8v5.3h-3.5c-1,0-1.8,0.8-1.8,1.8s0.8,1.8,1.8,1.8h3.5v7.1h-3.5
		c-1,0-1.8,0.8-1.8,1.8s0.8,1.8,1.8,1.8h3.5v7.1h-3.5c-1,0-1.8,0.8-1.8,1.8s0.8,1.8,1.8,1.8h3.5v7.1h-3.5c-1,0-1.8,0.8-1.8,1.8
		s0.8,1.8,1.8,1.8h3.5v7.1h-3.5c-1,0-1.8,0.8-1.8,1.8s0.8,1.8,1.8,1.8h3.5v7.1h-3.5c-1,0-1.8,0.8-1.8,1.8s0.8,1.8,1.8,1.8h3.5v7.1
		h-3.5c-1,0-1.8,0.8-1.8,1.8s0.8,1.8,1.8,1.8h3.5v7.1h-3.5c-1,0-1.8,0.8-1.8,1.8s0.8,1.8,1.8,1.8h3.5v7.1h-3.5c-1,0-1.8,0.8-1.8,1.8
		s0.8,1.8,1.8,1.8h3.5v7.1h-3.5c-1,0-1.8,0.8-1.8,1.8s0.8,1.8,1.8,1.8h3.5v5.2v0.1c0,1,0.8,1.8,1.8,1.8h72.4c1,0,1.8-0.8,1.8-1.8
		V53.8C351.2,52.8,350.4,52,349.4,52z M347.7,161.5h-8.5h-18.8h-27.5V69.7c0-1-0.8-1.8-1.8-1.8H291c-0.9,0.1-1.6,0.8-1.6,1.8v91.8
		h-10.6V158h3.5c1,0,1.8-0.8,1.8-1.8s-0.8-1.8-1.8-1.8h-3.5v-7.1h3.5c1,0,1.8-0.8,1.8-1.8s-0.8-1.8-1.8-1.8h-3.5v-7.1h3.5
		c1,0,1.8-0.8,1.8-1.8s-0.8-1.8-1.8-1.8h-3.5v-7.1h3.5c1,0,1.8-0.8,1.8-1.8s-0.8-1.8-1.8-1.8h-3.5v-7.1h3.5c1,0,1.8-0.8,1.8-1.8
		s-0.8-1.8-1.8-1.8h-3.5V105h3.5c1,0,1.8-0.8,1.8-1.8s-0.8-1.8-1.8-1.8h-3.5v-7.1h3.5c1,0,1.8-0.8,1.8-1.8s-0.8-1.8-1.8-1.8h-3.5
		v-7.1h3.5c1,0,1.8-0.8,1.8-1.8s-0.8-1.8-1.8-1.8h-3.5v-7.1h3.5c1,0,1.8-0.8,1.8-1.8s-0.8-1.8-1.8-1.8h-3.5v-7.1h3.5
		c1,0,1.8-0.8,1.8-1.8s-0.8-1.8-1.8-1.8h-3.5v-3.5h10.6v7.1c0,0.9,0.7,1.7,1.6,1.8h0.1c1,0,1.8-0.8,1.8-1.8v-7.1h27.5h18.8h8.5
		V161.5z"/>
	<path class="st6" d="M320.4,71.4h-18.6c-1,0-1.8,0.8-1.8,1.8s0.8,1.8,1.8,1.8h18.6h18.4c0.1,0,0.2,0,0.4,0c0.8-0.2,1.4-0.9,1.4-1.7
		s-0.6-1.6-1.4-1.7c-0.1,0-0.2,0-0.4,0h-18.4V71.4z"/>
	<path class="st6" d="M300,83.8c0,1,0.8,1.8,1.8,1.8h18.6h2.5c1,0,1.8-0.8,1.8-1.8s-0.8-1.8-1.8-1.8h-2.5h-18.6
		C300.8,82,300,82.8,300,83.8z"/>
	<path class="st6" d="M330,82c-1,0-1.8,0.8-1.8,1.8s0.8,1.8,1.8,1.8h8.8c0.1,0,0.2,0,0.4,0c0.8-0.2,1.4-0.9,1.4-1.7
		s-0.6-1.6-1.4-1.7c-0.1,0-0.2,0-0.4,0L330,82L330,82z"/>
	<path class="st6" d="M372.4,149.1V75l0,0c0-0.1,0-0.2,0-0.2l0,0v-0.1l-5.3-21.2c-0.2-0.8-0.9-1.3-1.7-1.3s-1.5,0.6-1.7,1.3
		l-5.3,21.2v0.1l0,0c0,0.1,0,0.2,0,0.2l0,0v74.2c-1,0-1.8,0.8-1.8,1.8s0.8,1.8,1.8,1.8v10.6c0,1,0.8,1.8,1.8,1.8h10.6
		c1,0,1.8-0.8,1.8-1.8v-10.6c1,0,1.8-0.8,1.8-1.8C374.2,149.9,373.4,149.1,372.4,149.1z M368.9,161.5h-3.4h-0.2h-3.4v-8.8h3.4h0.2
		h3.4V161.5z M365.3,61L365.3,61l3.3,13.4l-3.2,3.2l-0.1,0.1l-3.3-3.3L365.3,61z M361.8,149.1v-3.5h3.6h3.5v3.5h-3.5H361.8z
		 M368.9,142h-3.4h-0.2h-3.4V79.2l2.3,2.3c0.3,0.3,0.7,0.5,1.2,0.5c0.1,0,0.1,0,0.2,0c0.4,0,0.8-0.2,1.1-0.5l2.3-2.3V142H368.9z"/>
	<polygon class="st6" points="305.3,122.1 305.3,113.2 305.3,100 301.8,100 301.8,113.2 301.8,122.1 301.8,150 301.8,151.6 
		305.3,151.6 305.3,150 	"/>
</g>
<text transform="matrix(1 0 0 1 224.7531 236.7051)" class="st6 st7 st8">No address available</text>
</svg>
